<svg width="174" height="53" viewBox="0 0 174 53" fill="none" xmlns="http://www.w3.org/2000/svg">
<path d="M96.2827 29.3583C96.2827 31.6738 95.8797 33.8282 95.0736 35.8213C94.2822 37.8145 93.1611 39.5512 91.7102 41.0314C90.2593 42.4969 88.5079 43.6474 86.4562 44.4828C84.4191 45.3181 82.1548 45.7358 79.6633 45.7358C77.1719 45.7358 74.9003 45.3181 72.8485 44.4828C70.7967 43.6474 69.0381 42.4969 67.5725 41.0314C66.1216 39.5512 64.9932 37.8145 64.1871 35.8213C63.3957 33.8282 63 31.6738 63 29.3583C63 27.0427 63.3957 24.8883 64.1871 22.8952C64.9932 20.902 66.1216 19.1727 67.5725 17.7071C69.0381 16.2416 70.7967 15.0911 72.8485 14.2557C74.9003 13.4204 77.1719 13.0027 79.6633 13.0027C82.1548 13.0027 84.4191 13.4277 86.4562 14.2777C88.5079 15.1131 90.2593 16.2635 91.7102 17.7291C93.1611 19.1946 94.2822 20.924 95.0736 22.9171C95.8797 24.9103 96.2827 27.0573 96.2827 29.3583ZM88.6765 29.3583C88.6765 27.7755 88.4713 26.3539 88.061 25.0935C87.6506 23.8185 87.0571 22.7413 86.2803 21.862C85.5182 20.9826 84.5803 20.3085 83.4664 19.8395C82.3526 19.3705 81.0849 19.136 79.6633 19.136C78.2271 19.136 76.9447 19.3705 75.8163 19.8395C74.7024 20.3085 73.7572 20.9826 72.9804 21.862C72.2183 22.7413 71.6321 23.8185 71.2218 25.0935C70.8114 26.3539 70.6062 27.7755 70.6062 29.3583C70.6062 30.9557 70.8114 32.3919 71.2218 33.667C71.6321 34.9274 72.2183 35.9972 72.9804 36.8765C73.7572 37.7559 74.7024 38.43 75.8163 38.899C76.9447 39.3533 78.2271 39.5805 79.6633 39.5805C81.0849 39.5805 82.3526 39.3533 83.4664 38.899C84.5803 38.43 85.5182 37.7559 86.2803 36.8765C87.0571 35.9972 87.6506 34.9274 88.061 33.667C88.4713 32.3919 88.6765 30.9557 88.6765 29.3583Z" fill="#AAAAAA"/>
<path d="M132.267 39.4486V45.3841H112.966V13.3544H120.396V39.4486H132.267Z" fill="#AAAAAA"/>
<path d="M173.416 13.3544L160.578 45.3841H153.851L141.013 13.3544H146.992C147.637 13.3544 148.157 13.5083 148.553 13.8161C148.948 14.1092 149.249 14.4902 149.454 14.9592L155.653 32.1062C155.946 32.8536 156.232 33.6743 156.511 34.5683C156.789 35.4476 157.053 36.3709 157.302 37.3382C157.507 36.3709 157.734 35.4476 157.984 34.5683C158.247 33.6743 158.526 32.8536 158.819 32.1062L164.974 14.9592C165.136 14.5488 165.421 14.1825 165.832 13.86C166.257 13.523 166.777 13.3544 167.392 13.3544H173.416Z" fill="#AAAAAA"/>
<path d="M28.8331 11.0904C25.1735 7.42615 21.6801 3.93751 20.6359 0.00268555C19.5964 3.93751 16.103 7.42615 12.4435 11.0904C6.94708 16.5773 0.719739 22.8 0.719739 32.1315C0.610089 34.8157 1.04406 37.4943 1.99564 40.0066C2.94722 42.5188 4.39679 44.8128 6.25721 46.7508C8.11762 48.6888 10.3505 50.2307 12.8218 51.2841C15.2931 52.3374 17.9518 52.8803 20.6383 52.8803C23.3247 52.8803 25.9834 52.3374 28.4547 51.2841C30.926 50.2307 33.159 48.6888 35.0194 46.7508C36.8798 44.8128 38.3293 42.5188 39.2809 40.0066C40.2325 37.4943 40.6665 34.8157 40.5568 32.1315C40.5568 22.8 34.3295 16.5773 28.8331 11.0904Z" fill="#159BD7"/>
</svg>
