<svg xmlns="http://www.w3.org/2000/svg" viewBox="0 0 163.83 124.92"><title>Risorsa 39</title><g id="Livello_2" data-name="Livello 2"><g id="Livello_1-2" data-name="Livello 1"><path d="M88.42,15.81C83.2,10.59,78.21,5.61,76.73,0,75.24,5.61,70.26,10.59,65,15.81c-7.84,7.83-16.72,16.71-16.72,30a28.41,28.41,0,1,0,56.82,0C105.14,32.52,96.26,23.64,88.42,15.81ZM62.93,48.43A18.81,18.81,0,0,0,60.7,52a.7.7,0,0,1-.48.41l0,0H60c-.64-.05-1.39-1.24-1.39-1.24h0a9.18,9.18,0,0,1-.53-.92C58,50.13,58,50,57.93,50c-1.61-3.79-.22-9.14-.22-9.14l0,0a23.53,23.53,0,0,1,3.38-7.3,42.74,42.74,0,0,1,3.09-4l1.36,1.29,6.37,6.51a.71.71,0,0,1,0,1l-6.64,7.37h0ZM77.05,67a9.83,9.83,0,0,1-7.27-16.37c2.07-2.47,4.6-4.9,7.35-8.06,3.27,3.48,5.34,5.87,7.48,8.49a4.53,4.53,0,0,1,.45.63,9.75,9.75,0,0,1-8,15.31ZM95.53,51.41v0a1.14,1.14,0,0,1-.9.78h-.18a1.63,1.63,0,0,1-.92-.75h0a51.75,51.75,0,0,0-5.76-7.16l-2.61-2.75-8.64-9a72.89,72.89,0,0,1-5.17-5.32l-.14-.2a5.09,5.09,0,0,1-.68-1.36,2.34,2.34,0,0,0,0-.26,4.67,4.67,0,0,1,.34-2.6,4.86,4.86,0,0,1,1-1.39c1.67-1.68,3.35-3.37,4.94-5.12,1.75,1.94,3.62,3.8,5.47,5.65l0,0c3.67,3.67,7.46,7.46,10.17,11.57a21.6,21.6,0,0,1,4,12.24A19.42,19.42,0,0,1,95.53,51.41Z"/><path d="M76.73,90.82H69.84l0,12.88c0,3.77-1.62,6.81-5.38,6.81s-5.4-3-5.4-6.81V90.83H52.21V103.7c0,7.44,4.78,13.47,12.22,13.47s12.3-6,12.3-13.47Z"/><rect x="138.81" y="82.97" width="6.85" height="33.54"/><polygon points="150.72 84.21 150.72 83 156.06 83 156.06 84.21 154.11 84.21 154.11 89.52 152.68 89.52 152.68 84.21 150.72 84.21"/><polygon points="158.82 83 160.35 87.48 160.37 87.48 161.81 83 163.83 83 163.83 89.52 162.48 89.52 162.48 84.9 162.47 84.9 160.87 89.52 159.76 89.52 158.17 84.94 158.15 84.94 158.15 89.52 156.81 89.52 156.81 83 158.82 83"/><path d="M46.61,90.54c-5.9-1.36-9.63,4.5-9.78,4.82-.08.15-.08.24-.34.24a.26.26,0,0,1-.24-.24l-.74-4.49H29.38v25.61h6.88V102.62c0-1.13,3.05-6.57,9-5.17a9.36,9.36,0,0,1,4.26,2v-7.8a10.92,10.92,0,0,0-2.87-1.09"/><path d="M92.73,97a6.87,6.87,0,1,1-6.86,6.86A6.86,6.86,0,0,1,92.73,97m-6.67,27.89V115.7h0v-3.46s0-.27.26-.28.27.15.32.28a8.17,8.17,0,0,0,9.76,4.7,13.56,13.56,0,1,0-17.24-13.06v21Z"/><path d="M129.33,103.89A6.87,6.87,0,1,1,122.46,97a6.88,6.88,0,0,1,6.87,6.86m-.2,12.6H136v-12.6A13.56,13.56,0,1,0,118.79,117a8.16,8.16,0,0,0,9.75-4.7c.06-.13.11-.28.33-.28s.26.28.26.28"/><path d="M9.69,88.76H6.93v21.87l2.84.07c5.82,0,9.58-.53,9.58-11,0-10-3.32-10.94-9.66-10.94M7.83,116.44H0V83H8.4c10.16,0,17.88,1.86,17.88,16.74,0,14.73-8.17,16.74-18.45,16.74"/></g></g></svg>