<?xml version="1.0" encoding="utf-8"?><!DOCTYPE svg PUBLIC "-//W3C//DTD SVG 1.1//EN" "http://www.w3.org/Graphics/SVG/1.1/DTD/svg11.dtd"><svg xmlns="http://www.w3.org/2000/svg" xmlns:xlink="http://www.w3.org/1999/xlink"><symbol id="10.0_blue_RGB" viewBox="0 0 339.9 308.1" style="enable-background:new 0 0 339.9 308.1" xml:space="preserve" xmlns="http://www.w3.org/2000/svg"><style>.ast0{fill:#009cde}</style><g id="aLivello_2"><g id="aLivello_1-2"><path class="ast0" d="M158.5 69.5c-19.8-19.8-38.8-38.7-44.4-60.1-5.6 21.3-24.6 40.2-44.4 60.1-29.8 29.7-63.5 63.4-63.5 114 0 59.6 48.3 107.9 107.9 107.9S222 243.1 222 183.5c0-50.6-33.8-84.3-63.5-114M52 208.6c-6.6-.2-31-42.3 14.3-87.1l30 32.7c1 1 1 2.6 0 3.6l-.2.2c-7.2 7.3-37.6 37.9-41.4 48.5-.8 2.2-2 2.1-2.7 2.1m62.1 55.5C93.6 264.1 77 247.5 77 227c0-9.4 3.7-17.8 9.2-24.5 6.7-8.2 27.9-31.2 27.9-31.2s20.8 23.4 27.8 31.1c6.1 6.7 9.4 15.5 9.3 24.6 0 20.5-16.6 37.1-37.1 37.1m71-60.2c-.8 1.7-2.6 4.7-5.1 4.8-4.4.2-4.8-2.1-8.1-6.9-7.1-10.5-68.9-75.1-80.5-87.6-10.2-11-1.4-18.7 2.6-22.8l19.9-19.9s44.3 42 62.7 70.7 12.2 53.5 8.5 61.7"/><text transform="translate(210.984 290.784)" class="ast0" style="font-size:65px;font-family:'Ubuntu-Bold'">10.0</text></g></g></symbol><symbol viewBox="0 0 42.15 55.08" id="EL_black_RGB" xmlns="http://www.w3.org/2000/svg"><g data-name="Livello 2"><path d="M29.75 11.73C25.87 7.86 22.18 4.16 21.08 0 20 4.16 16.28 7.86 12.4 11.73 6.59 17.54 0 24.12 0 34a21.08 21.08 0 1 0 42.15 0c0-9.88-6.59-16.46-12.4-22.27ZM10.84 35.92a14.13 14.13 0 0 0-1.65 2.62.54.54 0 0 1-.36.3h-.18c-.47 0-1-.92-1-.92-.14-.22-.27-.45-.4-.69l-.09-.19C5.94 34.25 7 30.28 7 30.28a17.42 17.42 0 0 1 2.52-5.41 31.53 31.53 0 0 1 2.28-3l1 1 4.72 4.82a.54.54 0 0 1 0 .72l-4.93 5.47Zm10.48 13.81a7.29 7.29 0 0 1-5.4-12.14c1.54-1.83 3.42-3.63 5.46-6 2.42 2.58 4 4.35 5.55 6.29a3.08 3.08 0 0 1 .32.48 7.15 7.15 0 0 1 1.3 4.12 7.23 7.23 0 0 1-7.23 7.25ZM35 38.14a.84.84 0 0 1-.67.58h-.14a1.22 1.22 0 0 1-.68-.55 37.77 37.77 0 0 0-4.28-5.31l-1.93-2-6.41-6.65a54 54 0 0 1-3.84-3.94 1.3 1.3 0 0 0-.1-.15 3.84 3.84 0 0 1-.51-1v-.19a3.4 3.4 0 0 1 1-3c1.24-1.24 2.49-2.49 3.67-3.79 1.3 1.44 2.69 2.82 4.06 4.19a57.6 57.6 0 0 1 7.55 8.58A16 16 0 0 1 35.65 34a14.55 14.55 0 0 1-.65 4.14Z" data-name="Livello 1"/></g></symbol><symbol viewBox="0 0 42.15 55.08" id="EL_blue_RGB" xmlns="http://www.w3.org/2000/svg"><g data-name="Livello 2"><path d="M29.75 11.73C25.87 7.86 22.18 4.16 21.08 0 20 4.16 16.28 7.86 12.4 11.73 6.59 17.54 0 24.12 0 34a21.08 21.08 0 1 0 42.15 0c0-9.88-6.59-16.46-12.4-22.27ZM10.84 35.92a14.13 14.13 0 0 0-1.65 2.62.54.54 0 0 1-.36.3h-.18c-.47 0-1-.92-1-.92-.14-.22-.27-.45-.4-.69l-.09-.19C5.94 34.25 7 30.28 7 30.28a17.42 17.42 0 0 1 2.52-5.41 31.53 31.53 0 0 1 2.28-3l1 1 4.72 4.82a.54.54 0 0 1 0 .72l-4.93 5.47Zm10.48 13.81a7.29 7.29 0 0 1-5.4-12.14c1.54-1.83 3.42-3.63 5.46-6 2.42 2.58 4 4.35 5.55 6.29a3.08 3.08 0 0 1 .32.48 7.15 7.15 0 0 1 1.3 4.12 7.23 7.23 0 0 1-7.23 7.25ZM35 38.14a.84.84 0 0 1-.67.58h-.14a1.22 1.22 0 0 1-.68-.55 37.77 37.77 0 0 0-4.28-5.31l-1.93-2-6.41-6.65a54 54 0 0 1-3.84-3.94 1.3 1.3 0 0 0-.1-.15 3.84 3.84 0 0 1-.51-1v-.19a3.4 3.4 0 0 1 1-3c1.24-1.24 2.49-2.49 3.67-3.79 1.3 1.44 2.69 2.82 4.06 4.19a57.6 57.6 0 0 1 7.55 8.58A16 16 0 0 1 35.65 34a14.55 14.55 0 0 1-.65 4.14Z" style="fill:#009cde" data-name="Livello 1"/></g></symbol><symbol viewBox="0 0 163.83 124.92" id="Wordmark2_black_RGB" xmlns="http://www.w3.org/2000/svg"><g data-name="Livello 2"><g data-name="Livello 1"><path d="M88.42 15.81C83.2 10.59 78.21 5.61 76.73 0 75.24 5.61 70.26 10.59 65 15.81c-7.84 7.83-16.72 16.71-16.72 30a28.41 28.41 0 1 0 56.82 0c.04-13.29-8.84-22.17-16.68-30ZM62.93 48.43A18.81 18.81 0 0 0 60.7 52a.7.7 0 0 1-.48.41H60c-.64-.05-1.39-1.24-1.39-1.24a9.18 9.18 0 0 1-.53-.92C58 50.13 58 50 57.93 50c-1.61-3.79-.22-9.14-.22-9.14a23.53 23.53 0 0 1 3.38-7.3 42.74 42.74 0 0 1 3.09-4l1.36 1.29 6.37 6.51a.71.71 0 0 1 0 1l-6.64 7.37ZM77.05 67a9.83 9.83 0 0 1-7.27-16.37c2.07-2.47 4.6-4.9 7.35-8.06 3.27 3.48 5.34 5.87 7.48 8.49a4.53 4.53 0 0 1 .45.63 9.75 9.75 0 0 1-8 15.31Zm18.48-15.59a1.14 1.14 0 0 1-.9.78h-.18a1.63 1.63 0 0 1-.92-.75 51.75 51.75 0 0 0-5.76-7.16l-2.61-2.75-8.64-9a72.89 72.89 0 0 1-5.17-5.32l-.14-.2a5.09 5.09 0 0 1-.68-1.36 2.34 2.34 0 0 0 0-.26 4.67 4.67 0 0 1 .34-2.6 4.86 4.86 0 0 1 1-1.39c1.67-1.68 3.35-3.37 4.94-5.12 1.75 1.94 3.62 3.8 5.47 5.65 3.67 3.67 7.46 7.46 10.17 11.57a21.6 21.6 0 0 1 4 12.24 19.42 19.42 0 0 1-.92 5.67ZM76.73 90.82h-6.89v12.88c0 3.77-1.62 6.81-5.38 6.81s-5.4-3-5.4-6.81V90.83h-6.85v12.87c0 7.44 4.78 13.47 12.22 13.47s12.3-6 12.3-13.47ZM138.81 82.97h6.85v33.54h-6.85zM150.72 84.21V83h5.34v1.21h-1.95v5.31h-1.43v-5.31h-1.96zM158.82 83l1.53 4.48h.02l1.44-4.48h2.02v6.52h-1.35V84.9h-.01l-1.6 4.62h-1.11l-1.59-4.58h-.02v4.58h-1.34V83h2.01zM46.61 90.54c-5.9-1.36-9.63 4.5-9.78 4.82-.08.15-.08.24-.34.24a.26.26 0 0 1-.24-.24l-.74-4.49h-6.13v25.61h6.88v-13.86c0-1.13 3.05-6.57 9-5.17a9.36 9.36 0 0 1 4.26 2v-7.8a10.92 10.92 0 0 0-2.87-1.09M92.73 97a6.87 6.87 0 1 1-6.86 6.86A6.86 6.86 0 0 1 92.73 97m-6.67 27.89V112.24s0-.27.26-.28.27.15.32.28a8.17 8.17 0 0 0 9.76 4.7 13.56 13.56 0 1 0-17.24-13.06v21Z"/><path d="M129.33 103.89a6.87 6.87 0 1 1-6.87-6.89 6.88 6.88 0 0 1 6.87 6.86m-.2 12.6H136v-12.6A13.56 13.56 0 1 0 118.79 117a8.16 8.16 0 0 0 9.75-4.7c.06-.13.11-.28.33-.28s.26.28.26.28M9.69 88.76H6.93v21.87l2.84.07c5.82 0 9.58-.53 9.58-11 0-10-3.32-10.94-9.66-10.94m-1.86 27.68H0V83h8.4c10.16 0 17.88 1.86 17.88 16.74 0 14.73-8.17 16.74-18.45 16.74"/></g></g></symbol><symbol viewBox="0 0 163.83 124.92" id="Wordmark2_blue_RGB" xmlns="http://www.w3.org/2000/svg"><defs><style>.jcls-1{fill:#009cde}</style></defs><g id="jLivello_2" data-name="Livello 2"><g id="jLivello_1-2" data-name="Livello 1"><path class="jcls-1" d="M88.42 15.81C83.2 10.59 78.21 5.61 76.73 0 75.24 5.61 70.26 10.59 65 15.81c-7.84 7.83-16.72 16.71-16.72 30a28.41 28.41 0 1 0 56.82 0c.04-13.29-8.84-22.17-16.68-30ZM62.93 48.43A18.81 18.81 0 0 0 60.7 52a.7.7 0 0 1-.48.41H60c-.64-.05-1.39-1.24-1.39-1.24a9.18 9.18 0 0 1-.53-.92C58 50.13 58 50 57.93 50c-1.61-3.79-.22-9.14-.22-9.14a23.53 23.53 0 0 1 3.38-7.3 42.74 42.74 0 0 1 3.09-4l1.36 1.29 6.37 6.51a.71.71 0 0 1 0 1l-6.64 7.37ZM77.05 67a9.83 9.83 0 0 1-7.27-16.37c2.07-2.47 4.6-4.9 7.35-8.06 3.27 3.48 5.34 5.87 7.48 8.49a4.53 4.53 0 0 1 .45.63 9.75 9.75 0 0 1-8 15.31Zm18.48-15.59a1.14 1.14 0 0 1-.9.78h-.18a1.63 1.63 0 0 1-.92-.75 51.75 51.75 0 0 0-5.76-7.16l-2.61-2.75-8.64-9a72.89 72.89 0 0 1-5.17-5.32l-.14-.2a5.09 5.09 0 0 1-.68-1.36 2.34 2.34 0 0 0 0-.26 4.67 4.67 0 0 1 .34-2.6 4.86 4.86 0 0 1 1-1.39c1.67-1.68 3.35-3.37 4.94-5.12 1.75 1.94 3.62 3.8 5.47 5.65 3.67 3.67 7.46 7.46 10.17 11.57a21.6 21.6 0 0 1 4 12.24 19.42 19.42 0 0 1-.92 5.67ZM76.73 90.82h-6.89v12.88c0 3.77-1.62 6.81-5.38 6.81s-5.4-3-5.4-6.81V90.83h-6.85v12.87c0 7.44 4.78 13.47 12.22 13.47s12.3-6 12.3-13.47ZM138.81 82.97h6.85v33.54h-6.85zM150.72 84.21V83h5.34v1.21h-1.95v5.31h-1.43v-5.31h-1.96zM158.82 83l1.53 4.48h.02l1.44-4.48h2.02v6.52h-1.35V84.9h-.01l-1.6 4.62h-1.11l-1.59-4.58h-.02v4.58h-1.34V83h2.01zM46.61 90.54c-5.9-1.36-9.63 4.5-9.78 4.82-.08.15-.08.24-.34.24a.26.26 0 0 1-.24-.24l-.74-4.49h-6.13v25.61h6.88v-13.86c0-1.13 3.05-6.57 9-5.17a9.36 9.36 0 0 1 4.26 2v-7.8a10.92 10.92 0 0 0-2.87-1.09M92.73 97a6.87 6.87 0 1 1-6.86 6.86A6.86 6.86 0 0 1 92.73 97m-6.67 27.89V112.24s0-.27.26-.28.27.15.32.28a8.17 8.17 0 0 0 9.76 4.7 13.56 13.56 0 1 0-17.24-13.06v21Z"/><path class="jcls-1" d="M129.33 103.89a6.87 6.87 0 1 1-6.87-6.89 6.88 6.88 0 0 1 6.87 6.86m-.2 12.6H136v-12.6A13.56 13.56 0 1 0 118.79 117a8.16 8.16 0 0 0 9.75-4.7c.06-.13.11-.28.33-.28s.26.28.26.28M9.69 88.76H6.93v21.87l2.84.07c5.82 0 9.58-.53 9.58-11 0-10-3.32-10.94-9.66-10.94m-1.86 27.68H0V83h8.4c10.16 0 17.88 1.86 17.88 16.74 0 14.73-8.17 16.74-18.45 16.74"/></g></g></symbol><symbol viewBox="0 0 222.97 55.08" id="Wordmark_black_RGB" xmlns="http://www.w3.org/2000/svg"><g data-name="Livello 2"><g data-name="Livello 1"><path d="M29.75 11.73C25.87 7.86 22.18 4.16 21.08 0 20 4.16 16.28 7.86 12.4 11.73 6.59 17.54 0 24.12 0 34a21.08 21.08 0 1 0 42.15 0c0-9.88-6.59-16.46-12.4-22.27ZM10.84 35.92a14.13 14.13 0 0 0-1.65 2.62.54.54 0 0 1-.36.3h-.18c-.47 0-1-.92-1-.92-.14-.22-.27-.45-.4-.69l-.09-.19C5.94 34.25 7 30.28 7 30.28a17.42 17.42 0 0 1 2.52-5.41 31.53 31.53 0 0 1 2.28-3l1 1 4.72 4.82a.54.54 0 0 1 0 .72l-4.93 5.47Zm10.48 13.81a7.29 7.29 0 0 1-5.4-12.14c1.54-1.83 3.42-3.63 5.46-6 2.42 2.58 4 4.35 5.55 6.29a3.08 3.08 0 0 1 .32.48 7.15 7.15 0 0 1 1.3 4.12 7.23 7.23 0 0 1-7.23 7.25ZM35 38.14a.84.84 0 0 1-.67.58h-.14a1.22 1.22 0 0 1-.68-.55 37.77 37.77 0 0 0-4.28-5.31l-1.93-2-6.41-6.65a54 54 0 0 1-3.84-3.94 1.3 1.3 0 0 0-.1-.15 3.84 3.84 0 0 1-.51-1v-.19a3.4 3.4 0 0 1 1-3c1.24-1.24 2.49-2.49 3.67-3.79 1.3 1.44 2.69 2.82 4.06 4.19a57.6 57.6 0 0 1 7.55 8.58A16 16 0 0 1 35.65 34a14.55 14.55 0 0 1-.65 4.14ZM135.87 21H129v12.86c0 3.76-1.62 6.81-5.38 6.81s-5.4-3.05-5.4-6.81V21h-6.86v12.86c0 7.44 4.78 13.47 12.22 13.47s12.29-6 12.29-13.47ZM197.96 13.13h6.85v33.54h-6.85zM209.87 14.36v-1.2h5.33v1.2h-1.95v5.31h-1.43v-5.31h-1.95zM217.97 13.16l1.52 4.48h.02l1.44-4.48h2.02v6.52h-1.34v-4.62h-.02l-1.6 4.62h-1.1l-1.6-4.58h-.02v4.58h-1.34v-6.52h2.02zM105.76 20.7c-5.91-1.37-9.63 4.5-9.79 4.82-.07.15-.08.24-.34.23s-.24-.23-.24-.23L94.66 21h-6.14v25.64h6.88V32.78c0-1.14 3-6.57 9-5.17a9.36 9.36 0 0 1 4.26 2v-7.83a11.32 11.32 0 0 0-2.86-1.08M151.88 27.19a6.87 6.87 0 1 1-6.88 6.86 6.86 6.86 0 0 1 6.87-6.86m-6.67 27.89V42.41s0-.27.26-.28.27.15.33.28a8.15 8.15 0 0 0 9.75 4.69 13.56 13.56 0 1 0-17.24-13.05v21Z"/><path d="M188.47 34.05a6.87 6.87 0 1 1-6.86-6.86 6.87 6.87 0 0 1 6.86 6.86m-.19 12.6h6.89v-12.6a13.56 13.56 0 1 0-17.24 13.05 8.16 8.16 0 0 0 9.76-4.69c.05-.13.1-.28.32-.28s.26.28.26.28M68.84 18.92h-2.77v21.87l2.84.07c5.83 0 9.58-.53 9.58-11 0-10-3.31-10.94-9.65-10.94M67 46.6h-7.86V13.11h8.4c10.17 0 17.88 1.87 17.88 16.75S77.25 46.6 67 46.6"/></g></g></symbol><symbol viewBox="0 0 222.97 55.08" id="Wordmark_blue_RGB" xmlns="http://www.w3.org/2000/svg"><defs><style>.lcls-1{fill:#009cde}</style></defs><g id="lLivello_2" data-name="Livello 2"><g id="lLivello_1-2" data-name="Livello 1"><path class="lcls-1" d="M29.75 11.73C25.87 7.86 22.18 4.16 21.08 0 20 4.16 16.28 7.86 12.4 11.73 6.59 17.54 0 24.12 0 34a21.08 21.08 0 1 0 42.15 0c0-9.88-6.59-16.46-12.4-22.27ZM10.84 35.92a14.13 14.13 0 0 0-1.65 2.62.54.54 0 0 1-.36.3h-.18c-.47 0-1-.92-1-.92-.14-.22-.27-.45-.4-.69l-.09-.19C5.94 34.25 7 30.28 7 30.28a17.42 17.42 0 0 1 2.52-5.41 31.53 31.53 0 0 1 2.28-3l1 1 4.72 4.82a.54.54 0 0 1 0 .72l-4.93 5.47Zm10.48 13.81a7.29 7.29 0 0 1-5.4-12.14c1.54-1.83 3.42-3.63 5.46-6 2.42 2.58 4 4.35 5.55 6.29a3.08 3.08 0 0 1 .32.48 7.15 7.15 0 0 1 1.3 4.12 7.23 7.23 0 0 1-7.23 7.25ZM35 38.14a.84.84 0 0 1-.67.58h-.14a1.22 1.22 0 0 1-.68-.55 37.77 37.77 0 0 0-4.28-5.31l-1.93-2-6.41-6.65a54 54 0 0 1-3.84-3.94 1.3 1.3 0 0 0-.1-.15 3.84 3.84 0 0 1-.51-1v-.19a3.4 3.4 0 0 1 1-3c1.24-1.24 2.49-2.49 3.67-3.79 1.3 1.44 2.69 2.82 4.06 4.19a57.6 57.6 0 0 1 7.55 8.58A16 16 0 0 1 35.65 34a14.55 14.55 0 0 1-.65 4.14ZM135.87 21H129v12.86c0 3.76-1.62 6.81-5.38 6.81s-5.4-3.05-5.4-6.81V21h-6.86v12.86c0 7.44 4.78 13.47 12.22 13.47s12.29-6 12.29-13.47ZM197.96 13.13h6.85v33.54h-6.85zM209.87 14.36v-1.2h5.33v1.2h-1.95v5.31h-1.43v-5.31h-1.95zM217.97 13.16l1.52 4.48h.02l1.44-4.48h2.02v6.52h-1.34v-4.62h-.02l-1.6 4.62h-1.1l-1.6-4.58h-.02v4.58h-1.34v-6.52h2.02zM105.76 20.7c-5.91-1.37-9.63 4.5-9.79 4.82-.07.15-.08.24-.34.23s-.24-.23-.24-.23L94.66 21h-6.14v25.64h6.88V32.78c0-1.14 3-6.57 9-5.17a9.36 9.36 0 0 1 4.26 2v-7.83a11.32 11.32 0 0 0-2.86-1.08M151.88 27.19a6.87 6.87 0 1 1-6.88 6.86 6.86 6.86 0 0 1 6.87-6.86m-6.67 27.89V42.41s0-.27.26-.28.27.15.33.28a8.15 8.15 0 0 0 9.75 4.69 13.56 13.56 0 1 0-17.24-13.05v21Z"/><path class="lcls-1" d="M188.47 34.05a6.87 6.87 0 1 1-6.86-6.86 6.87 6.87 0 0 1 6.86 6.86m-.19 12.6h6.89v-12.6a13.56 13.56 0 1 0-17.24 13.05 8.16 8.16 0 0 0 9.76-4.69c.05-.13.1-.28.32-.28s.26.28.26.28M68.84 18.92h-2.77v21.87l2.84.07c5.83 0 9.58-.53 9.58-11 0-10-3.31-10.94-9.65-10.94M67 46.6h-7.86V13.11h8.4c10.17 0 17.88 1.87 17.88 16.75S77.25 46.6 67 46.6"/></g></g></symbol><symbol viewBox="0 0 32 32" id="drupal-svgrepo-com" xmlns="http://www.w3.org/2000/svg"><path fill="#444" d="M21.627 8.169c-1.32-.822-2.564-1.145-3.809-1.967-.772-.523-1.843-1.768-2.739-2.838-.174 1.718-.697 2.415-1.295 2.913-1.27.996-2.067 1.295-3.162 1.892-.921.473-5.926 3.461-5.926 9.885S10.099 29.209 16.1 29.209s11.204-4.357 11.204-10.955-4.88-9.586-5.677-10.084zm.144 18.696c-.125.125-1.27.921-2.614 1.046s-3.162.199-4.258-.797c-.174-.174-.124-.423 0-.523s.224-.174.373-.174.124 0 .199.05c.498.398 1.245.722 2.838.722s2.714-.448 3.212-.822c.224-.174.324-.025.349.075s.075.249-.1.423zm-4.357-2.266c.274-.249.722-.647 1.145-.822s.647-.149 1.046-.149.822.025 1.12.224c.299.199.473.647.573.896s0 .398-.199.498c-.174.1-.199.05-.374-.274s-.324-.647-1.195-.647-1.145.299-1.569.647c-.423.349-.573.473-.722.274s-.099-.398.175-.647zm6.598.199c-.896-.075-2.689-2.863-3.834-2.913-1.444-.05-4.581 3.013-7.046 3.013-1.494 0-1.942-.224-2.44-.548-.747-.523-1.12-1.32-1.096-2.415.025-1.942 1.842-3.76 4.133-3.785 2.913-.025 4.93 2.888 6.399 2.863 1.245-.025 3.635-2.465 4.805-2.465 1.245 0 1.594 1.295 1.594 2.066s-.249 2.166-.847 3.038c-.598.872-.971 1.195-1.668 1.145z"/></symbol><symbol fill="none" viewBox="0 0 278 94" id="horizontal" xmlns="http://www.w3.org/2000/svg"><path d="M148.18 49.017c0 2.49-.415 4.8-1.245 6.93-.814 2.115-1.973 3.947-3.477 5.498-1.504 1.55-3.313 2.764-5.427 3.641-2.114.862-4.464 1.293-7.048 1.293-2.569 0-4.91-.431-7.025-1.293-2.114-.877-3.931-2.09-5.45-3.641-1.504-1.55-2.671-3.383-3.501-5.498-.83-2.13-1.245-4.44-1.245-6.93 0-2.49.415-4.793 1.245-6.907.83-2.13 1.997-3.97 3.501-5.521 1.519-1.55 3.336-2.757 5.45-3.618 2.115-.877 4.456-1.316 7.025-1.316 1.723 0 3.344.204 4.863.61a16.49 16.49 0 0 1 4.182 1.692 14.756 14.756 0 0 1 3.406 2.655 15.663 15.663 0 0 1 2.585 3.477 16.749 16.749 0 0 1 1.597 4.182c.376 1.504.564 3.086.564 4.746Zm-6.461 0c0-1.864-.25-3.532-.751-5.004-.502-1.488-1.214-2.75-2.138-3.783a9.134 9.134 0 0 0-3.383-2.373c-1.316-.548-2.804-.822-4.464-.822-1.66 0-3.156.274-4.487.822a9.397 9.397 0 0 0-3.384 2.373c-.924 1.034-1.636 2.295-2.137 3.783-.502 1.472-.752 3.14-.752 5.004 0 1.864.25 3.54.752 5.027.501 1.473 1.213 2.726 2.137 3.76a9.534 9.534 0 0 0 3.384 2.349c1.331.548 2.827.822 4.487.822 1.66 0 3.148-.274 4.464-.822 1.331-.548 2.459-1.331 3.383-2.35.924-1.033 1.636-2.286 2.138-3.759.501-1.487.751-3.163.751-5.027ZM160.2 31.09v34.912h-5.803V31.09h5.803Zm13.675 10.807v24.105h-5.826V41.898h5.826Zm.799-7.024c0 .5-.102.97-.305 1.41a3.773 3.773 0 0 1-.823 1.15c-.329.33-.72.596-1.174.8-.455.187-.94.281-1.457.281-.501 0-.979-.094-1.433-.282a3.98 3.98 0 0 1-1.151-.799 3.992 3.992 0 0 1-.799-1.15 3.54 3.54 0 0 1-.282-1.41c0-.517.094-1.003.282-1.457.204-.454.47-.846.799-1.175a3.633 3.633 0 0 1 1.151-.775 3.464 3.464 0 0 1 1.433-.305c.517 0 1.002.101 1.457.305.454.188.845.446 1.174.775.345.33.619.72.823 1.175.203.454.305.94.305 1.457Zm28.728 7.024-9.562 24.105h-5.262l-9.562-24.105h4.793c.438 0 .798.102 1.08.306.298.203.494.462.588.775l4.651 12.874a34.43 34.43 0 0 1 1.152 4.37c.156-.72.329-1.44.517-2.161.187-.72.415-1.457.681-2.209l4.746-12.874c.109-.313.305-.572.587-.775a1.68 1.68 0 0 1 1.01-.306h4.581Zm19.768 9.28c0-.752-.11-1.456-.329-2.114a4.896 4.896 0 0 0-.94-1.762 4.291 4.291 0 0 0-1.621-1.175c-.642-.297-1.394-.446-2.255-.446-1.676 0-3 .477-3.971 1.433-.955.955-1.566 2.31-1.832 4.064h10.948Zm-11.066 3.5c.094 1.238.313 2.311.658 3.22.345.892.799 1.636 1.363 2.231a5.549 5.549 0 0 0 1.997 1.316c.783.282 1.644.423 2.584.423.94 0 1.746-.11 2.42-.33.689-.218 1.284-.461 1.785-.727a29.01 29.01 0 0 0 1.339-.729c.392-.219.768-.329 1.128-.329.486 0 .846.18 1.081.54l1.668 2.115a9.922 9.922 0 0 1-2.162 1.903 12.82 12.82 0 0 1-2.513 1.222c-.862.297-1.747.509-2.655.634a18.76 18.76 0 0 1-2.608.188c-1.676 0-3.234-.274-4.675-.822a10.674 10.674 0 0 1-3.759-2.467c-1.065-1.096-1.903-2.443-2.514-4.04-.611-1.614-.916-3.478-.916-5.592 0-1.645.266-3.188.799-4.629.532-1.456 1.292-2.717 2.278-3.782 1.003-1.08 2.217-1.934 3.642-2.56 1.441-.627 3.062-.94 4.863-.94 1.519 0 2.921.242 4.206.728a9.087 9.087 0 0 1 3.312 2.138c.924.924 1.645 2.067 2.162 3.43.532 1.347.798 2.89.798 4.628 0 .877-.094 1.472-.282 1.785-.188.298-.548.447-1.08.447h-14.919Zm27.99-8.598c.751-1.44 1.644-2.569 2.678-3.383 1.034-.83 2.255-1.245 3.665-1.245 1.112 0 2.005.243 2.678.728l-.376 4.346c-.078.282-.196.486-.352.611-.141.11-.337.165-.587.165-.235 0-.588-.04-1.058-.118a7.866 7.866 0 0 0-1.339-.117c-.642 0-1.214.094-1.715.282a4.357 4.357 0 0 0-1.363.822 5.726 5.726 0 0 0-1.057 1.269 13.51 13.51 0 0 0-.845 1.715v14.848h-5.803V41.898h3.406c.595 0 1.01.11 1.245.33.235.203.392.579.47 1.127l.353 2.725Zm23.911-4.558c1.786 0 3.407.29 4.864.87 1.472.58 2.725 1.401 3.759 2.466 1.049 1.065 1.856 2.365 2.419 3.9.564 1.535.846 3.25.846 5.145 0 1.911-.282 3.634-.846 5.17-.563 1.534-1.37 2.842-2.419 3.922-1.034 1.081-2.287 1.911-3.759 2.49-1.457.58-3.078.87-4.864.87-1.801 0-3.438-.29-4.91-.87-1.472-.579-2.733-1.409-3.782-2.49-1.034-1.08-1.841-2.388-2.42-3.923-.564-1.535-.846-3.258-.846-5.169 0-1.895.282-3.61.846-5.145.579-1.535 1.386-2.835 2.42-3.9 1.049-1.065 2.31-1.887 3.782-2.466 1.472-.58 3.109-.87 4.91-.87Zm0 20.37c2.005 0 3.485-.674 4.441-2.021.971-1.347 1.456-3.32 1.456-5.92s-.485-4.582-1.456-5.944c-.956-1.363-2.436-2.044-4.441-2.044-2.036 0-3.547.689-4.534 2.067-.971 1.363-1.457 3.336-1.457 5.92 0 2.585.486 4.558 1.457 5.92.987 1.348 2.498 2.021 4.534 2.021Z" fill="#AAA"/><path d="M54.711 30.086c-3.66-3.664-7.153-7.153-8.197-11.087-1.04 3.934-4.533 7.423-8.193 11.087-5.496 5.487-11.723 11.71-11.723 21.041A19.933 19.933 0 0 0 54.333 70.28a19.936 19.936 0 0 0 12.102-19.153c0-9.331-6.228-15.554-11.724-21.04Z" fill="#159BD7"/><circle cx="46.515" cy="47.003" r="43.667" stroke="#159BD7" stroke-width="5.696"/></symbol><symbol viewBox="0 0 487.3 487.3" xml:space="preserve" id="list-svgrepo-com" xmlns="http://www.w3.org/2000/svg"><path d="M487.2 69.7c0 12.9-10.5 23.4-23.4 23.4h-322c-12.9 0-23.4-10.5-23.4-23.4s10.5-23.4 23.4-23.4h322.1c12.9.1 23.3 10.5 23.3 23.4zm-23.3 92.6H141.8c-12.9 0-23.4 10.5-23.4 23.4s10.5 23.4 23.4 23.4h322.1c12.9 0 23.4-10.5 23.4-23.4-.1-12.9-10.5-23.4-23.4-23.4zm0 116H141.8c-12.9 0-23.4 10.5-23.4 23.4s10.5 23.4 23.4 23.4h322.1c12.9 0 23.4-10.5 23.4-23.4-.1-12.9-10.5-23.4-23.4-23.4zm0 116H141.8c-12.9 0-23.4 10.5-23.4 23.4s10.5 23.4 23.4 23.4h322.1c12.9 0 23.4-10.5 23.4-23.4-.1-12.9-10.5-23.4-23.4-23.4zM38.9 30.8C17.4 30.8 0 48.2 0 69.7s17.4 39 38.9 39 38.9-17.5 38.9-39-17.4-38.9-38.9-38.9zm0 116C17.4 146.8 0 164.2 0 185.7s17.4 38.9 38.9 38.9 38.9-17.4 38.9-38.9-17.4-38.9-38.9-38.9zm0 116C17.4 262.8 0 280.2 0 301.7s17.4 38.9 38.9 38.9 38.9-17.4 38.9-38.9-17.4-38.9-38.9-38.9zm0 115.9C17.4 378.7 0 396.1 0 417.6s17.4 38.9 38.9 38.9 38.9-17.4 38.9-38.9c0-21.4-17.4-38.9-38.9-38.9z"/></symbol><symbol fill="none" viewBox="0 0 174 53" id="olv" xmlns="http://www.w3.org/2000/svg"><path d="M96.283 29.358c0 2.316-.403 4.47-1.21 6.463-.79 1.994-1.912 3.73-3.363 5.21-1.45 1.466-3.202 2.616-5.254 3.452-2.037.835-4.301 1.253-6.793 1.253-2.491 0-4.763-.418-6.814-1.253-2.052-.836-3.81-1.986-5.276-3.452-1.451-1.48-2.58-3.216-3.386-5.21C63.396 33.828 63 31.674 63 29.358c0-2.315.396-4.47 1.187-6.463.806-1.993 1.935-3.722 3.386-5.188 1.465-1.465 3.224-2.616 5.276-3.451 2.051-.836 4.323-1.253 6.814-1.253 2.492 0 4.756.425 6.793 1.275 2.052.835 3.803 1.986 5.254 3.451 1.451 1.466 2.572 3.195 3.364 5.188.806 1.993 1.209 4.14 1.209 6.441Zm-7.606 0c0-1.582-.206-3.004-.616-4.265-.41-1.274-1.004-2.352-1.78-3.231a7.533 7.533 0 0 0-2.815-2.022c-1.113-.47-2.381-.704-3.803-.704-1.436 0-2.718.235-3.847.704a7.732 7.732 0 0 0-2.836 2.022c-.762.88-1.348 1.957-1.758 3.232-.41 1.26-.616 2.681-.616 4.264 0 1.598.205 3.034.616 4.309.41 1.26.996 2.33 1.758 3.21a7.732 7.732 0 0 0 2.836 2.022c1.129.454 2.411.681 3.847.681 1.422 0 2.69-.227 3.803-.681a7.533 7.533 0 0 0 2.814-2.023c.777-.879 1.37-1.949 1.781-3.209.41-1.275.615-2.711.615-4.309ZM132.267 39.449v5.935h-19.301v-32.03h7.43V39.45h11.871ZM173.416 13.354l-12.838 32.03h-6.727l-12.838-32.03h5.979c.645 0 1.165.154 1.561.462.395.293.696.674.901 1.143l6.199 17.147c.293.748.579 1.568.858 2.462.278.88.542 1.803.791 2.77.205-.967.432-1.89.682-2.77.263-.894.542-1.714.835-2.462l6.155-17.147c.162-.41.447-.777.858-1.099.425-.337.945-.506 1.56-.506h6.024Z" fill="#AAA"/><path d="M28.833 11.09C25.173 7.426 21.68 3.938 20.636.003c-1.04 3.935-4.533 7.423-8.192 11.087C6.947 16.577.72 22.8.72 32.131a19.935 19.935 0 1 0 39.837 0c0-9.331-6.227-15.554-11.724-21.04Z" fill="#159BD7"/></symbol><symbol fill="none" viewBox="0 0 151 155" id="vertical" xmlns="http://www.w3.org/2000/svg"><path d="M32.63 129.818c0 2.227-.371 4.292-1.113 6.196-.728 1.89-1.764 3.528-3.108 4.914-1.345 1.386-2.962 2.472-4.852 3.256-1.89.77-3.99 1.155-6.3 1.155-2.297 0-4.39-.385-6.28-1.155-1.89-.784-3.514-1.87-4.873-3.256-1.344-1.386-2.387-3.024-3.129-4.914-.742-1.904-1.113-3.969-1.113-6.196 0-2.226.371-4.284 1.113-6.174.742-1.904 1.785-3.55 3.13-4.936 1.358-1.386 2.982-2.464 4.872-3.234 1.89-.784 3.983-1.176 6.28-1.176 1.54 0 2.989.182 4.347.546 1.358.35 2.604.854 3.738 1.512a13.208 13.208 0 0 1 3.046 2.373c.91.924 1.68 1.96 2.31 3.109a14.983 14.983 0 0 1 1.428 3.738c.336 1.344.504 2.758.504 4.242Zm-5.776 0c0-1.666-.224-3.157-.672-4.473-.448-1.33-1.085-2.457-1.91-3.381a8.166 8.166 0 0 0-3.025-2.122c-1.176-.49-2.506-.735-3.99-.735-1.485 0-2.822.245-4.012.735a8.4 8.4 0 0 0-3.024 2.122c-.826.924-1.463 2.051-1.911 3.381-.448 1.316-.672 2.807-.672 4.473s.224 3.165.672 4.495c.448 1.316 1.085 2.436 1.91 3.36a8.52 8.52 0 0 0 3.025 2.1c1.19.49 2.527.735 4.011.735 1.485 0 2.815-.245 3.99-.735a8.279 8.279 0 0 0 3.025-2.1c.826-.924 1.463-2.044 1.911-3.36.448-1.33.672-2.829.672-4.495Zm16.94-16.024v31.209h-5.187v-31.209h5.188Zm12.646 9.661v21.548H51.23v-21.548h5.209Zm.714-6.28c0 .448-.091.868-.273 1.26a3.372 3.372 0 0 1-.735 1.029 3.484 3.484 0 0 1-1.05.714c-.406.168-.84.252-1.302.252-.448 0-.875-.084-1.282-.252a3.565 3.565 0 0 1-1.029-.714 3.563 3.563 0 0 1-.714-1.029 3.165 3.165 0 0 1-.252-1.26c0-.462.084-.896.252-1.302.182-.406.42-.756.714-1.05a3.253 3.253 0 0 1 1.03-.693 3.098 3.098 0 0 1 1.28-.273c.463 0 .897.091 1.303.273.406.168.756.399 1.05.693.308.294.553.644.735 1.05.182.406.273.84.273 1.302Zm26.101 6.28-8.547 21.548h-4.705l-8.548-21.548h4.285c.392 0 .714.091.966.273.266.182.44.413.525.693l4.158 11.509a31.028 31.028 0 0 1 1.03 3.906c.14-.644.293-1.288.461-1.932.168-.644.371-1.302.61-1.974l4.242-11.509c.098-.28.273-.511.525-.693.252-.182.553-.273.903-.273h4.095Zm18.091 8.295a5.94 5.94 0 0 0-.294-1.89 4.372 4.372 0 0 0-.84-1.575 3.837 3.837 0 0 0-1.45-1.05c-.573-.266-1.245-.399-2.015-.399-1.498 0-2.681.427-3.55 1.281-.854.854-1.4 2.065-1.638 3.633h9.787Zm-9.892 3.13c.084 1.106.28 2.065.588 2.877.308.798.714 1.463 1.218 1.995.504.518 1.1.91 1.785 1.176.7.252 1.47.378 2.31.378.84 0 1.562-.098 2.164-.294a9.658 9.658 0 0 0 1.596-.651c.462-.238.861-.455 1.197-.651.35-.196.686-.294 1.008-.294.434 0 .756.161.966.483l1.492 1.89a8.91 8.91 0 0 1-1.933 1.702c-.714.448-1.463.812-2.247 1.092-.77.266-1.561.455-2.373.567a16.77 16.77 0 0 1-2.331.168c-1.498 0-2.892-.245-4.18-.735a9.532 9.532 0 0 1-3.36-2.206c-.952-.98-1.701-2.184-2.247-3.612-.546-1.442-.82-3.108-.82-4.998 0-1.47.239-2.85.715-4.138.476-1.302 1.155-2.429 2.037-3.381.896-.966 1.981-1.729 3.255-2.289 1.288-.56 2.737-.84 4.348-.84 1.358 0 2.61.217 3.759.651a8.123 8.123 0 0 1 2.961 1.911c.826.826 1.47 1.848 1.932 3.066.477 1.204.715 2.583.715 4.138 0 .784-.084 1.316-.252 1.596-.169.266-.491.399-.967.399H91.454Zm25.441-7.687c.672-1.288 1.47-2.296 2.394-3.024.924-.742 2.016-1.113 3.277-1.113.994 0 1.792.217 2.394.651l-.336 3.885c-.07.252-.175.434-.315.546-.126.098-.301.147-.525.147-.21 0-.525-.035-.945-.105a7.04 7.04 0 0 0-1.198-.105c-.574 0-1.085.084-1.533.252a3.882 3.882 0 0 0-1.218.735c-.35.308-.665.686-.945 1.134-.266.448-.518.959-.756 1.533v13.274h-5.187v-21.548h3.045c.532 0 .903.098 1.113.294.21.182.35.518.42 1.008l.315 2.436Zm21.796-4.074c1.596 0 3.045.259 4.347.777 1.316.518 2.436 1.253 3.36 2.205.939.952 1.66 2.114 2.164 3.486.504 1.372.756 2.906.756 4.6 0 1.708-.252 3.248-.756 4.62-.504 1.372-1.225 2.541-2.164 3.507-.924.967-2.044 1.709-3.36 2.227-1.302.518-2.751.777-4.347.777-1.61 0-3.074-.259-4.39-.777-1.316-.518-2.443-1.26-3.381-2.227-.924-.966-1.645-2.135-2.163-3.507-.504-1.372-.756-2.912-.756-4.62 0-1.694.252-3.228.756-4.6.518-1.372 1.239-2.534 2.163-3.486.938-.952 2.065-1.687 3.381-2.205 1.316-.518 2.78-.777 4.39-.777Zm0 18.208c1.792 0 3.115-.602 3.969-1.806.868-1.204 1.302-2.968 1.302-5.292s-.434-4.096-1.302-5.314c-.854-1.218-2.177-1.827-3.969-1.827-1.82 0-3.172.616-4.054 1.848-.868 1.218-1.302 2.983-1.302 5.293s.434 4.074 1.302 5.292c.882 1.204 2.234 1.806 4.054 1.806Z" fill="#AAA"/><path d="M82.784 29.599c-3.66-3.664-7.153-7.153-8.197-11.088-1.04 3.935-4.533 7.424-8.192 11.088-5.497 5.487-11.724 11.71-11.724 21.041a19.935 19.935 0 1 0 39.837 0c0-9.331-6.227-15.554-11.724-21.041Z" fill="#159BD7"/><circle cx="74.589" cy="46.515" r="43.667" stroke="#159BD7" stroke-width="5.696"/></symbol></svg>