<?xml version="1.0" encoding="utf-8"?>
<!-- Generator: Adobe Illustrator 26.5.0, SVG Export Plug-In . SVG Version: 6.00 Build 0)  -->
<svg version="1.1" id="Layer_1" xmlns="http://www.w3.org/2000/svg" xmlns:xlink="http://www.w3.org/1999/xlink" x="0px" y="0px"
	 viewBox="0 0 109.1 93.6" style="enable-background:new 0 0 109.1 93.6;" xml:space="preserve">
<style type="text/css">
	.st0{fill:#009CDE;}
	.st1{enable-background:new    ;}
</style>
<g id="Livello_2">
	<g id="Livello_1-2">
		<g>
			<path class="st0" d="M50.6,21.5C44.5,15.3,38.6,9.4,36.8,2.8C35,9.4,29.2,15.3,23,21.5C13.7,30.8,3.2,41.3,3.2,57.1
				c0,18.6,15.1,33.7,33.6,33.7c18.6,0,33.7-15.1,33.7-33.6c0,0,0,0,0,0C70.5,41.3,59.9,30.8,50.6,21.5z M20.5,60.1
				c-1,1.3-1.9,2.7-2.6,4.2c-0.1,0.2-0.3,0.4-0.6,0.5l-0.1,0l0,0c-0.1,0-0.1,0-0.2,0l0,0c-0.8-0.1-1.7-1.5-1.7-1.5l0,0
				c-0.2-0.3-0.4-0.7-0.6-1.1l-0.1-0.3c-1.9-4.5-0.3-10.8-0.3-10.8l0,0c0.8-3.1,2.2-6,4-8.6c1.1-1.6,2.3-3.2,3.6-4.7l1.6,1.5
				l7.5,7.7c0.3,0.3,0.3,0.8,0,1.1l-7.9,8.7l0,0L20.5,60.1z M37.2,82.2c-6.4-0.1-11.6-5.3-11.5-11.8c0-2.8,1.1-5.5,3-7.6
				c2.5-2.9,5.5-5.8,8.7-9.5c3.9,4.1,6.3,7,8.9,10c0.2,0.2,0.4,0.5,0.5,0.8c3.7,5.2,2.4,12.4-2.8,16.1
				C41.9,81.5,39.5,82.2,37.2,82.2z M59.1,63.7L59.1,63.7c-0.2,0.5-0.6,0.8-1.1,0.9h-0.2c-0.5-0.1-0.8-0.4-1.1-0.8l0,0
				c-2-3-4.3-5.9-6.8-8.5L46.8,52L36.5,41.4c-1.7-1.7-4.8-4.7-6.1-6.3l-0.2-0.2c-0.4-0.5-0.6-1-0.8-1.6c0-0.1,0-0.2,0-0.3
				c-0.2-1,0-2.1,0.4-3.1c0.3-0.6,0.7-1.2,1.2-1.6c2-2,4-4,5.8-6.1c2.1,2.3,4.3,4.5,6.5,6.7l0,0c4.3,4.4,8.8,8.9,12,13.7
				S60.1,52,60.1,57C60.1,59.3,59.7,61.5,59.1,63.7z"/>
		</g>
		<g class="st1">
			<path class="st0" d="M69,79.5c0.4-0.2,0.8-0.3,1.2-0.5c0.4-0.2,0.8-0.4,1.2-0.7c0.4-0.2,0.8-0.5,1.2-0.8c0.4-0.3,0.7-0.6,1-0.9
				h2.1v13.9h-3v-10c-0.4,0.3-0.8,0.5-1.3,0.7s-1,0.4-1.4,0.6L69,79.5z"/>
			<path class="st0" d="M89.6,83.5c0,2.3-0.4,4.1-1.3,5.4s-2.1,1.9-3.7,1.9c-1.6,0-2.8-0.6-3.7-1.9s-1.3-3-1.3-5.4
				c0-1.2,0.1-2.2,0.3-3.1s0.6-1.6,1-2.3c0.4-0.6,1-1.1,1.6-1.4c0.6-0.3,1.3-0.5,2.1-0.5c1.6,0,2.8,0.6,3.7,1.9
				C89.2,79.4,89.6,81.2,89.6,83.5z M86.6,83.5c0-0.7,0-1.3-0.1-1.9c-0.1-0.6-0.2-1.1-0.3-1.5c-0.1-0.4-0.3-0.7-0.6-1
				c-0.3-0.2-0.6-0.3-0.9-0.3s-0.7,0.1-0.9,0.3c-0.2,0.2-0.4,0.5-0.6,1c-0.2,0.4-0.3,0.9-0.3,1.5c-0.1,0.6-0.1,1.2-0.1,1.9
				s0,1.3,0.1,1.9c0.1,0.6,0.2,1.1,0.3,1.5s0.4,0.7,0.6,1c0.2,0.2,0.6,0.3,0.9,0.3s0.7-0.1,0.9-0.3c0.3-0.2,0.5-0.5,0.6-1
				s0.3-0.9,0.3-1.5C86.5,84.9,86.6,84.2,86.6,83.5z"/>
			<path class="st0" d="M94.6,88.9c0,0.6-0.2,1.1-0.6,1.4s-0.8,0.5-1.3,0.5c-0.5,0-0.9-0.2-1.3-0.5s-0.6-0.8-0.6-1.4
				s0.2-1.1,0.6-1.4c0.4-0.3,0.8-0.5,1.3-0.5c0.5,0,0.9,0.2,1.3,0.5C94.4,87.9,94.6,88.3,94.6,88.9z"/>
			<path class="st0" d="M105.9,83.5c0,2.3-0.4,4.1-1.3,5.4c-0.9,1.2-2.1,1.9-3.7,1.9c-1.6,0-2.8-0.6-3.7-1.9s-1.3-3-1.3-5.4
				c0-1.2,0.1-2.2,0.3-3.1s0.6-1.6,1-2.3c0.4-0.6,1-1.1,1.6-1.4c0.6-0.3,1.3-0.5,2.1-0.5c1.6,0,2.8,0.6,3.7,1.9
				C105.5,79.4,105.9,81.2,105.9,83.5z M102.9,83.5c0-0.7,0-1.3-0.1-1.9c-0.1-0.6-0.2-1.1-0.3-1.5c-0.1-0.4-0.3-0.7-0.6-1
				c-0.3-0.2-0.6-0.3-0.9-0.3c-0.4,0-0.7,0.1-0.9,0.3c-0.2,0.2-0.4,0.5-0.6,1c-0.2,0.4-0.3,0.9-0.3,1.5c-0.1,0.6-0.1,1.2-0.1,1.9
				s0,1.3,0.1,1.9c0.1,0.6,0.2,1.1,0.3,1.5s0.4,0.7,0.6,1s0.6,0.3,0.9,0.3c0.4,0,0.7-0.1,0.9-0.3s0.5-0.5,0.6-1
				c0.1-0.4,0.3-0.9,0.3-1.5S102.9,84.2,102.9,83.5z"/>
		</g>
	</g>
</g>
</svg>
